# xmcd
#
# Track frame offsets:
#	225
#	16132
#	33605
#	49700
#	69506
#	88862
#	108507
#	125949
#	143140
#	165930
#	180410
#	200920
#	227425
#	242792
#	261315
#	278295
#	299350
#	320007
#
# Disc length: 4545 seconds
#
# Revision: 4
# Processed by: cddbd v1.5PL3 Copyright (c) Steve Scherf et al.
# Submitted via: CDex 1.50Beta5
#
DISCID=0711be12
DTITLE=西村由紀江 - しあわせまでもう少し
DYEAR=2002
DGENRE=Soundtrack
TTITLE0=あなたに最高のしあわせを
TTITLE1=ひだまり
TTITLE2=風のスキップ
TTITLE3=とまどい
TTITLE4=心が満ちる時
TTITLE5=手紙
TTITLE6=旅
TTITLE7=オルゴールを聴きながら
TTITLE8=あたたかな時
TTITLE9=いつまでも
TTITLE10=すき
TTITLE11=風に向かって
TTITLE12=木漏れ日の中で
TTITLE13=幻想の夜曲
TTITLE14=私にできること
TTITLE15=波雲
TTITLE16=誕生
TTITLE17=i・no・ri
EXTD=
EXTT0=
EXTT1=
EXTT2=
EXTT3=
EXTT4=
EXTT5=
EXTT6=
EXTT7=
EXTT8=
EXTT9=
EXTT10=
EXTT11=
EXTT12=
EXTT13=
EXTT14=
EXTT15=
EXTT16=
EXTT17=
PLAYORDER=
